# xmcd
#
# Track frame offsets:
# 150
# 37762
# 65895
# 93288
# 111647
# 148221
# 185441
# 237774
#
# Disc length: 4059 seconds
#
#
# Revision: 7
# Processed by: cddbd v1.5.2PL0 Copyright (c) Steve Scherf et al.
# Submitted via: FreeRIP 2.945 
#
DISCID=710fd908
DTITLE=The John Butler Trio - Three
DYEAR=2001
DGENRE=AlternRock
TTITLE0=Betterman
TTITLE1=Attitude
TTITLE2=Media
TTITLE3=Believe
TTITLE4=Take
TTITLE5=Life Ain't What It Seems
TTITLE6=Money
TTITLE7=Foundation
EXTD=YEAR: 2001 ID3G: 40
EXTT0=
EXTT1=
EXTT2=
EXTT3=
EXTT4=
EXTT5=
EXTT6=
EXTT7=
PLAYORDER=
